<?xml version="1.0" encoding="UTF-8" standalone="no"?>
<svg
  xmlns:dc="http://purl.org/dc/elements/1.1/"
  xmlns:cc="http://creativecommons.org/ns#"
  xmlns:rdf="http://www.w3.org/1999/02/22-rdf-syntax-ns#"
  xmlns:svg="http://www.w3.org/2000/svg"
  xmlns="http://www.w3.org/2000/svg"
  id="svg8"
  version="1.1"
  viewBox="0 0 132.29174 39.687503"
  height="150"
  width="500">
  <g fill="none" stroke="red" stroke-width="2.25" stroke-linecap="butt" stroke-linejoin="miter"
    transform="translate(0,-257.31248)">

    <!-- animation -->
    <!-- p vertical line -> y left part -->
    <path>
      <animate
        attributeName="d" dur="3s" keyTimes="0; 0.3; 0.5; 0.8; 1" repeatCount="indefinite"
        values="m 41.054853,270.59257 0,12.49496 0,6.35248;
                m 40.525686,270.59257 5.70002,12.49496 -2.747758,6.35248;
                m 40.525686,270.59257 5.70002,12.49496 -2.747758,6.35248;
                m 41.054853,270.59257 0,12.49496 0,6.35248;
                m 41.054853,270.59257 0,12.49496 0,6.35248" />
    </path>
    <!-- p circle -> y right part -->
    <path>
      <animate
        attributeName="d" dur="3s" keyTimes="0; 0.3; 0.5; 0.8; 1" repeatCount="indefinite"
        values="m 41.583582,273.41218 c 6.059225,-4.58704 9.493823,-1.24876 9.446236,3.79537 -0.0525,5.56498 -4.855462,8.47686 -9.529489,4.88885;
                m 51.401047,270.55094 c -1,2.73668 -1.894855,4.73482 -2.681221,6.65661 -1.075287,2.62788 -1.862579,4.63801 -2.49412,5.87998;
                m 51.401047,270.55094 c -1,2.73668 -1.894855,4.73482 -2.681221,6.65661 -1.075287,2.62788 -1.862579,4.63801 -2.49412,5.87998;
                m 41.583582,273.41218 c 6.059225,-4.58704 9.493823,-1.24876 9.446236,3.79537 -0.0525,5.56498 -4.855462,8.47686 -9.529489,4.88885;
                m 41.583582,273.41218 c 6.059225,-4.58704 9.493823,-1.24876 9.446236,3.79537 -0.0525,5.56498 -4.855462,8.47686 -9.529489,4.88885" />
    </path>
    <!-- r vertical line -> k vertical line -->
    <path>
      <animate
        attributeName="d" dur="3s" keyTimes="0; 0.3; 0.5; 0.8; 1" repeatCount="indefinite"
        values="m 73.079739,270.54007 v 13.85995;
                m 73.079739,265.02759 v 19.37243;
                m 73.079739,265.02759 v 19.37243;
                m 73.079739,270.54007 v 13.85995;
                m 73.079739,270.54007 v 13.85995" />
    </path>
    <!-- r curve -> k second line -->
    <path>
      <animate
        attributeName="d" dur="3s" keyTimes="0; 0.3; 0.5; 0.8; 1" repeatCount="indefinite"
        values="m 73.249978,275.12558 c 2.204992,-2.99249 5.499739,-4.00801 7.337233,-3.37801;
                m 73.249978,278.22307 c 2.099993,-1.89 6.759734,-5.6355 9.174726,-7.6305;
                m 73.249978,278.22307 c 2.099993,-1.89 6.759734,-5.6355 9.174726,-7.6305;
                m 73.249978,275.12558 c 2.204992,-2.99249 5.499739,-4.00801 7.337233,-3.37801;
                m 73.249978,275.12558 c 2.204992,-2.99249 5.499739,-4.00801 7.337233,-3.37801" />
    </path>
    <!-- r void -> k last line -->
    <path>
      <animate
        attributeName="d" dur="3s" keyTimes="0; 0.3; 0.5; 0.8; 1" repeatCount="indefinite"
        values="m 73.681947,277.59001 0,0;
                m 73.681947,277.59001 9.058851,6.47064;
                m 73.681947,277.59001 9.058851,6.47064;
                m 73.681947,277.59001 0,0;
                m 73.681947,277.59001 0,0" />
    </path>

    <!-- no animation -->

    <!-- s -->
    <path
      d="m 21.839922,272.48257 c -5.141703,-2.5391 -8.988596,-1.13895 -9.023599,1.84122 -0.02531,2.15487 1.552418,2.628 4.216407,3.09905 2.009526,0.35532 3.88816,0.90414 4.037457,3.10606 0.220548,3.25277 -4.993599,4.33725 -9.498482,1.81462" />
    <!-- e -->
    <path
      d="m 25.829908,276.89255 h 10.394963 c 0.537735,-8.22445 -10.583217,-7.41676 -10.345102,0.0742 0.256871,8.08105 6.489776,7.79171 11.1326,5.38573" />
    <!-- a outer -->
    <path
      d="m 56.88805,271.96658 c 5.127418,-1.66089 7.905725,-0.5584 8.798223,0.7541 0.966743,1.27537 0.673488,5.9736 0.673488,11.73185" />
    <!-- a inner -->
    <path
      d="m 65.840039,276.14217 c -4.661288,0.005 -8.930242,0.17288 -8.877743,4.37287 0.0525,4.19998 5.396289,3.81183 8.930245,0.87448" />
    <!-- a -->
    <g
      transform="translate(0.90039637,0.92114)">
      <path
        d="m 84.660696,271.04544 c 5.127418,-1.66089 7.905725,-0.5584 8.798223,0.7541 0.966743,1.27537 0.673488,5.9736 0.673488,11.73185" />
      <path
        d="m 93.612685,275.22103 c -4.661288,0.005 -8.930242,0.17288 -8.877743,4.37287 0.0525,4.19998 5.396289,3.81183 8.930245,0.87448" />
    </g>
    <!-- t vertical line -->
    <path
      d="m 101.58714,266.55009 c 0,0 -0.0525,11.65496 0,14.33245 0.0525,2.67749 3.14684,3.47216 6.05259,2.3739" />
    <!-- t horizontal line -->
    <path
      d="m 98.920883,271.42177 h 8.718857" />
    <!-- e -->
    <path
      d="m 110.7982,276.89255 h 10.39496 c 0.53774,-8.22445 -10.58322,-7.41676 -10.3451,0.0742 0.25687,8.08105 6.48978,7.79171 11.1326,5.38573" />
  </g>
</svg>
